<?xml version="1.0" standalone="no"?>
<!DOCTYPE svg PUBLIC "-//W3C//DTD SVG 20010904//EN"
 "http://www.w3.org/TR/2001/REC-SVG-20010904/DTD/svg10.dtd">
<svg version="1.0" xmlns="http://www.w3.org/2000/svg"
 width="800.000000pt" height="800.000000pt" viewBox="0 0 800.000000 800.000000"
 preserveAspectRatio="xMidYMid meet">

<g transform="translate(0.000000,800.000000) scale(0.100000,-0.100000)"
fill="#000000" stroke="none">
<path d="M0 4000 l0 -4000 4000 0 4000 0 0 895 0 895 -1127 2 c-1240 3 -1155
-1 -1232 64 -44 37 -81 116 -81 174 l0 45 -112 -1 c-86 -1 -122 -6 -150 -20
l-38 -18 0 -100 c0 -85 -4 -109 -24 -151 -30 -65 -110 -139 -191 -177 -60 -28
-73 -30 -175 -30 -98 1 -115 -2 -154 -24 -44 -25 -225 -63 -301 -64 -22 0 -65
-9 -95 -20 -30 -11 -81 -19 -113 -20 -32 0 -68 -5 -79 -11 -24 -13 -207 -47
-318 -59 -41 -5 -100 -15 -130 -24 -30 -9 -73 -16 -95 -16 -23 0 -47 -6 -53
-12 -8 -8 -49 -13 -111 -15 -74 -1 -108 -6 -133 -20 -26 -14 -56 -18 -148 -18
-138 0 -180 15 -266 97 -58 54 -88 102 -108 172 -10 32 -17 40 -32 38 -10 -2
-73 -5 -139 -8 -85 -4 -132 -11 -160 -24 -68 -31 -229 -65 -365 -76 -98 -8
-175 13 -230 62 -38 34 -39 34 -45 13 -12 -37 -96 -119 -143 -141 -65 -29
-289 -68 -391 -68 -137 1 -208 43 -262 155 -36 75 -40 167 -9 245 19 48 20 74
20 560 0 486 -1 512 -20 560 -57 145 6 316 142 386 18 9 132 34 253 56 121 21
257 45 303 53 219 39 258 45 303 45 27 0 77 9 111 20 78 25 457 91 555 98 40
2 85 0 101 -6 24 -8 35 -6 58 9 55 37 100 50 294 85 341 62 376 64 474 39 33
-9 61 -14 63 -12 12 12 -14 37 -55 52 -26 10 -120 55 -210 102 -170 88 -261
126 -324 136 -34 5 -46 0 -134 -64 -164 -119 -243 -169 -328 -209 -126 -60
-188 -73 -335 -68 -116 4 -131 6 -191 35 -36 17 -81 47 -100 67 -31 33 -35 43
-38 104 -4 74 3 97 78 256 127 268 314 525 540 738 61 58 110 107 110 110 0
14 -145 30 -207 23 -220 -23 -497 -186 -665 -390 -72 -88 -105 -111 -174 -120
-40 -6 -59 -3 -90 13 -80 41 -114 99 -154 257 -20 79 -22 107 -18 254 4 146 8
176 32 251 104 320 352 599 684 768 217 111 349 144 592 147 91 1 188 7 216
14 46 11 56 19 125 103 73 90 179 191 273 262 54 41 215 125 299 156 227 84
512 90 740 16 57 -19 143 -42 191 -51 171 -32 342 -105 511 -220 143 -97 207
-151 475 -400 390 -363 477 -417 602 -374 93 32 165 21 226 -35 39 -35 52 -71
52 -145 0 -79 -36 -192 -85 -271 -48 -77 -134 -168 -191 -202 -43 -26 -53 -37
-49 -53 2 -11 5 -45 5 -76 l0 -57 69 -4 c56 -3 75 -9 105 -32 63 -48 78 -80
73 -161 -3 -60 -9 -79 -43 -135 -21 -35 -71 -97 -111 -137 -63 -64 -72 -78
-78 -120 l-6 -48 93 1 c79 0 101 4 148 26 57 28 167 51 330 70 131 15 191 -2
265 -75 84 -85 107 -199 65 -322 -19 -55 -20 -84 -20 -564 0 -482 1 -509 20
-559 27 -70 27 -172 -1 -232 -37 -82 -112 -144 -214 -176 -33 -11 69 -13 608
-13 l647 -1 0 2860 0 2860 -4000 0 -4000 0 0 -4000z"/>
<path d="M3885 6589 c-142 -8 -240 -35 -391 -109 -174 -84 -317 -202 -427
-351 -27 -35 -54 -71 -62 -80 -24 -31 -149 -51 -360 -60 -246 -10 -332 -31
-530 -131 -130 -66 -192 -109 -294 -204 -139 -130 -205 -214 -271 -348 -84
-170 -103 -258 -98 -441 4 -124 8 -150 36 -230 34 -99 57 -125 109 -125 31 0
48 14 171 138 146 147 235 213 382 284 47 22 116 49 153 59 87 25 225 34 304
21 62 -11 176 -52 226 -82 l28 -17 -93 -75 c-126 -101 -267 -242 -363 -363
-94 -117 -125 -161 -190 -270 -43 -71 -50 -83 -83 -150 -95 -190 -115 -253
-92 -294 35 -66 238 -101 382 -66 107 26 297 133 443 250 22 17 62 44 88 60
43 24 55 27 103 21 84 -10 179 -47 350 -136 85 -45 189 -94 232 -110 l77 -28
27 -72 c14 -39 29 -74 31 -77 3 -3 -9 -24 -28 -48 -18 -24 -35 -49 -37 -55 -2
-7 -25 -1 -63 17 -55 26 -69 28 -180 28 -83 0 -159 -7 -245 -23 -69 -13 -152
-28 -185 -33 -101 -16 -151 -37 -189 -79 l-34 -38 -48 24 c-55 28 -90 30 -194
9 -41 -8 -129 -24 -195 -35 -66 -12 -143 -25 -172 -30 -28 -5 -68 -17 -90 -26
-24 -11 -68 -18 -123 -19 -47 -1 -132 -11 -190 -23 -58 -11 -148 -28 -200 -37
-52 -9 -133 -23 -180 -32 -265 -46 -292 -58 -329 -143 -26 -61 -26 -112 0
-170 20 -44 21 -60 19 -586 -1 -512 -2 -543 -20 -592 -26 -67 -25 -111 1 -173
17 -38 32 -56 66 -76 42 -24 50 -25 136 -20 104 7 264 37 317 60 97 42 137
163 90 270 -18 40 -20 63 -18 179 l3 133 78 16 c44 10 95 28 117 43 l40 26 -6
-47 c-15 -123 -37 -238 -55 -276 -41 -90 -14 -193 63 -244 36 -24 50 -27 114
-26 141 2 342 49 386 90 24 23 30 24 59 14 43 -15 127 -13 224 4 44 8 96 18
115 21 l36 6 -4 -40 c-9 -96 52 -210 143 -266 46 -29 57 -31 140 -31 78 0 97
4 143 27 44 22 58 25 80 17 32 -13 114 -4 153 17 16 8 56 14 91 14 37 0 72 6
83 14 11 7 56 16 100 19 44 4 103 11 130 16 28 6 77 15 110 20 33 6 71 19 85
29 20 15 32 16 63 9 45 -11 89 -4 141 23 28 14 50 18 81 13 26 -3 63 1 98 11
30 9 70 16 89 16 45 1 113 33 133 63 16 24 18 25 50 11 20 -8 68 -14 115 -14
96 0 151 23 217 92 59 61 65 84 61 221 l-3 118 52 18 c28 9 66 29 85 43 30 22
36 24 63 12 64 -28 245 -3 297 41 18 15 43 32 57 38 14 6 118 14 231 17 230 8
267 16 320 77 l31 34 33 -20 c41 -26 124 -28 246 -6 201 37 252 61 289 139 26
53 26 97 1 171 -19 55 -20 84 -20 591 0 510 1 536 20 586 37 97 21 167 -49
231 -53 48 -108 52 -286 21 -143 -25 -193 -42 -236 -82 l-40 -36 -31 19 c-38
22 -155 23 -248 1 -35 -8 -65 -14 -67 -12 -2 1 9 27 23 57 21 42 28 74 32 146
5 90 5 92 33 104 39 15 139 124 178 192 63 110 30 167 -100 167 -56 0 -64 3
-96 35 -33 33 -34 36 -27 93 4 40 1 78 -10 122 -9 34 -15 63 -14 64 56 21 154
82 187 116 80 82 147 209 158 302 8 68 -2 96 -42 115 -33 16 -39 16 -83 1 -74
-26 -103 -29 -161 -18 -122 23 -253 116 -511 364 -449 432 -679 578 -1017 646
-60 12 -117 27 -127 32 -84 45 -257 67 -441 57z m157 -678 c20 -23 28 -42 28
-69 l-1 -37 -19 37 c-11 20 -32 46 -46 57 -36 28 -107 28 -154 0 -28 -18 -32
-18 -20 -4 27 32 91 56 140 51 34 -3 51 -11 72 -35z m-790 -78 c16 -20 30 -53
22 -53 -3 0 -15 5 -27 12 -18 9 -17 6 7 -22 21 -26 26 -40 22 -63 -12 -60 -73
-119 -181 -176 -46 -24 -53 -30 -28 -26 62 12 198 23 233 19 102 -11 152 -30
270 -103 41 -26 84 -52 95 -59 11 -6 60 -33 110 -58 49 -26 96 -54 103 -63 29
-36 52 -105 52 -156 0 -56 -43 -199 -77 -258 -19 -32 -19 -32 -124 -39 -156
-10 -275 -40 -401 -103 -152 -76 -227 -128 -518 -361 -159 -127 -309 -233
-379 -268 -39 -21 -41 -25 47 104 252 370 565 651 931 837 84 42 201 86 209
79 2 -3 -3 -19 -11 -35 -9 -17 -12 -31 -8 -31 16 0 102 83 117 113 50 95 -54
204 -241 253 -105 27 -414 25 -585 -5 -325 -56 -583 -130 -819 -235 -100 -44
-231 -116 -263 -144 -16 -13 -18 -13 -18 0 0 28 40 131 76 197 177 323 526
520 1043 591 46 6 118 24 160 40 90 33 161 38 183 13z m663 -2 c7 -12 -12 -24
-25 -16 -11 7 -4 25 10 25 5 0 11 -4 15 -9z m-1680 -219 c-6 -5 -39 -31 -75
-57 -92 -69 -256 -237 -318 -327 -45 -66 -70 -113 -141 -268 -10 -22 -11 -21
-5 15 8 58 65 204 105 271 47 80 175 212 261 271 87 60 209 127 173 95z m730
-435 c82 -34 133 -74 165 -130 16 -29 30 -56 30 -61 0 -4 -26 16 -57 45 -61
55 -176 133 -230 156 -18 7 -33 16 -33 19 0 9 74 -8 125 -29z m370 -566 c-3
-6 -29 -23 -58 -40 -55 -32 -186 -130 -469 -352 -275 -215 -388 -289 -443
-289 -39 0 -29 13 33 42 31 15 116 77 187 138 389 330 507 412 695 487 66 26
62 25 55 14z m3379 -659 c3 -5 -3 -32 -14 -60 -18 -48 -19 -83 -20 -635 -1
-514 0 -589 14 -616 9 -16 16 -41 16 -54 0 -21 -7 -25 -67 -37 -186 -35 -228
-40 -241 -26 -12 11 -10 20 6 52 36 72 36 90 0 151 -87 145 -160 265 -205 335
-50 77 -58 84 -78 68 -22 -18 -21 -553 0 -590 8 -14 14 -37 15 -51 0 -29 15
-24 -179 -58 -63 -11 -118 -18 -122 -15 -14 8 -10 38 9 64 16 23 17 72 20 617
l3 593 -25 47 c-17 31 -22 51 -16 62 9 16 211 60 283 61 43 0 45 -5 17 -78
-11 -29 -20 -60 -20 -71 0 -10 25 -57 55 -106 30 -48 55 -89 55 -92 0 -2 12
-23 28 -46 39 -61 50 -78 71 -118 27 -49 70 -99 86 -99 25 0 29 37 33 277 l4
242 -28 60 c-31 71 -26 85 39 95 23 3 76 12 117 20 88 17 137 19 144 8z
m-1149 -203 c4 -5 -3 -35 -16 -65 -21 -52 -21 -61 -10 -142 6 -48 18 -139 27
-202 8 -63 21 -158 29 -210 8 -52 22 -149 30 -215 9 -66 25 -177 35 -246 11
-70 20 -135 20 -146 0 -10 9 -36 20 -58 23 -45 25 -71 8 -77 -7 -3 -44 -11
-83 -17 -38 -7 -99 -19 -135 -26 -88 -18 -96 -10 -64 63 23 53 24 59 13 136
-12 84 -23 116 -39 116 -12 0 -212 -98 -224 -110 -5 -5 -15 -38 -22 -72 -13
-61 -12 -65 12 -112 14 -26 23 -53 21 -60 -3 -6 -49 -20 -103 -30 -55 -10
-121 -22 -148 -27 -30 -6 -53 -6 -59 0 -5 5 1 37 16 82 13 41 32 130 41 199
21 160 53 380 71 496 8 49 15 108 15 130 0 21 4 54 10 73 9 33 34 265 33 308
-1 13 -11 41 -22 64 -21 39 -21 42 -5 60 9 11 27 19 39 19 12 0 67 8 121 19
54 10 142 26 194 35 52 9 104 18 115 20 38 7 54 6 60 -5z m144 -166 c-2 -46
-2 -47 -8 -13 -4 19 -5 41 -3 48 8 24 12 11 11 -35z m-942 15 c-3 -13 -15 -49
-26 -81 -21 -57 -22 -68 -19 -620 l3 -562 25 -48 c23 -45 23 -50 8 -61 -10 -7
-50 -18 -90 -25 -40 -7 -104 -18 -141 -26 -84 -16 -90 -8 -58 69 20 48 21 68
21 304 0 221 -2 253 -16 259 -15 5 -262 -95 -302 -123 -17 -12 -20 -35 -26
-222 l-6 -209 26 -57 c19 -42 23 -60 15 -70 -6 -7 -43 -18 -83 -25 -88 -15
-179 -32 -193 -37 -5 -2 -16 0 -24 5 -11 7 -9 19 10 67 l24 59 -2 576 c-2 568
-2 576 -23 617 -12 23 -20 49 -18 58 3 19 9 21 181 54 142 27 152 24 122 -48
-17 -41 -20 -77 -22 -271 -4 -247 -5 -245 57 -234 49 8 262 108 273 128 5 9 7
98 5 198 -3 150 -7 188 -22 214 -23 43 -18 76 14 85 47 13 225 46 259 47 30 1
33 -1 28 -21z m-1211 -223 c205 -63 277 -313 154 -543 -17 -33 -50 -78 -73
-101 -41 -42 -41 -42 -24 -69 50 -77 60 -115 78 -312 15 -155 23 -204 40 -239
25 -50 18 -74 -22 -79 -13 -1 -69 -11 -124 -21 -159 -30 -175 -32 -182 -16 -3
8 10 41 27 72 l33 57 -5 131 c-9 218 -51 315 -131 300 -19 -4 -46 -18 -59 -32
-22 -24 -23 -30 -26 -238 -3 -199 -2 -216 17 -254 36 -70 35 -71 -74 -91 -38
-7 -100 -18 -137 -25 -88 -16 -95 -8 -63 71 l25 59 0 564 0 564 -27 52 c-14
29 -23 60 -20 68 3 9 23 19 44 22 21 3 57 10 80 15 22 6 72 14 110 20 37 6
102 16 143 24 100 19 156 19 216 1z m-856 -140 c0 -8 -9 -38 -20 -66 -19 -51
-19 -53 1 -188 10 -75 28 -201 39 -281 11 -80 25 -174 30 -210 5 -36 18 -132
30 -215 12 -82 25 -179 30 -215 5 -36 18 -84 30 -108 12 -23 20 -48 17 -56 -3
-8 -30 -19 -59 -24 -29 -5 -95 -18 -146 -27 -63 -12 -96 -15 -103 -8 -7 7 -2
30 14 70 24 59 24 60 9 151 -9 53 -21 93 -29 96 -21 8 -234 -105 -243 -128
-20 -56 -20 -121 0 -161 32 -64 29 -71 -47 -88 -115 -27 -232 -42 -243 -31 -6
6 0 32 16 72 14 34 29 97 34 140 5 42 13 106 19 142 6 36 18 119 26 185 9 66
22 161 30 210 8 50 21 151 30 225 9 74 20 162 26 196 14 91 11 129 -13 178
-24 51 -17 71 30 79 15 3 83 15 152 27 69 12 154 28 190 35 94 19 150 19 150
0z m-692 -234 c3 -152 4 -151 -85 -131 -46 10 -70 9 -151 -5 -186 -32 -240
-46 -246 -61 -12 -32 -18 -279 -7 -307 11 -29 12 -29 74 -22 34 4 82 11 107
17 25 5 69 13 98 17 l52 8 0 -42 c0 -54 -42 -185 -64 -197 -9 -5 -67 -18 -129
-28 -155 -26 -147 -11 -147 -269 0 -156 3 -211 13 -226 8 -11 19 -34 25 -52
16 -49 16 -49 -207 -89 -77 -14 -94 -15 -101 -3 -5 7 -5 20 0 29 39 72 40 89
40 666 l0 562 -25 57 c-31 68 -25 81 43 90 26 4 79 12 117 20 39 7 115 21 170
30 114 19 301 52 360 64 22 5 45 8 50 6 6 -1 11 -56 13 -134z m829 72 c-3 -10
-5 -4 -5 12 0 17 2 24 5 18 2 -7 2 -21 0 -30z m-865 -373 c17 0 26 -5 24 -12
-3 -7 -7 -26 -11 -42 l-6 -29 -22 20 c-50 45 -107 51 -239 27 -23 -4 -38 -3
-38 3 0 18 131 43 200 38 36 -3 77 -5 92 -5z m2345 -327 c-2 -38 -3 -7 -3 67
0 74 1 105 3 68 2 -38 2 -98 0 -135z m648 -253 c22 -8 24 -13 15 -30 -9 -16
-17 -19 -53 -14 -50 7 -91 -19 -113 -72 -32 -77 43 -143 117 -104 26 14 26 44
-1 37 -16 -4 -20 0 -20 19 0 26 5 29 58 38 l32 6 0 -48 c0 -40 -5 -53 -28 -76
-32 -30 -83 -42 -136 -32 -43 8 -86 64 -86 111 1 45 34 109 71 138 30 22 48
28 106 36 6 0 23 -3 38 -9z m-375 -195 c0 -144 0 -145 -22 -145 -18 0 -31 16
-63 77 l-40 76 -3 -87 c-1 -47 -7 -86 -12 -86 -4 0 -15 -3 -24 -6 -14 -5 -16
11 -16 139 0 123 2 146 16 151 29 11 33 7 71 -66 l38 -73 3 70 c3 86 6 95 32
95 19 0 20 -6 20 -145z m-342 -57 c-3 -140 -4 -143 -25 -146 -23 -3 -23 -3
-23 136 0 76 3 142 7 145 3 4 15 7 25 7 17 0 18 -9 16 -142z m-218 -43 l0
-145 -25 0 c-23 0 -24 4 -27 63 l-3 62 -25 -70 c-21 -60 -28 -70 -49 -70 -19
0 -27 10 -43 50 -30 77 -38 77 -38 2 0 -37 -2 -67 -4 -67 -2 0 -11 -3 -20 -6
-14 -5 -16 11 -16 140 l0 146 24 0 c20 0 28 -12 56 -85 18 -47 37 -88 41 -90
4 -3 19 31 33 75 35 108 52 140 76 140 19 0 20 -7 20 -145z m-452 -73 c23 -70
42 -131 42 -135 0 -4 -11 -7 -24 -7 -16 0 -27 7 -31 20 -4 13 -13 19 -23 16
-9 -2 -32 -7 -50 -11 -23 -5 -34 -13 -38 -31 -4 -17 -13 -24 -31 -24 -19 0
-23 4 -19 18 3 9 15 49 26 87 11 39 27 93 36 120 9 28 18 56 20 63 2 6 14 12
26 12 21 0 28 -13 66 -128z m-331 53 c2 -6 -3 -19 -10 -28 -10 -15 -17 -16
-41 -8 -61 24 -130 -42 -124 -116 4 -52 44 -80 95 -67 42 10 60 44 24 44 -16
0 -21 6 -21 25 0 15 6 25 14 25 7 0 28 3 45 6 l31 7 0 -51 c0 -44 -4 -54 -30
-76 -57 -48 -131 -46 -181 4 -25 24 -29 37 -29 81 0 62 25 108 79 145 29 20
46 24 90 22 30 -2 56 -8 58 -13z"/>
<path d="M3121 5718 c-5 -14 -15 -29 -20 -33 -6 -3 -11 -15 -11 -25 0 -10 -6
-20 -12 -23 -7 -2 -10 -8 -5 -12 11 -12 59 27 76 59 11 24 11 30 -3 44 -14 14
-16 13 -25 -10z"/>
<path d="M5287 3368 c-4 -13 -22 -121 -52 -318 -9 -58 -19 -135 -22 -172 -7
-81 -1 -84 84 -41 82 42 92 57 83 123 -5 30 -21 133 -35 229 -14 96 -28 178
-31 183 -8 12 -21 10 -27 -4z"/>
<path d="M3307 3134 c-64 -20 -69 -37 -65 -206 4 -172 9 -181 93 -154 76 24
134 71 168 137 84 164 -16 278 -196 223z"/>
<path d="M2420 2856 c-5 -15 -10 -35 -10 -44 0 -17 -20 -150 -46 -302 -8 -47
-15 -112 -17 -145 -2 -59 -1 -60 23 -57 29 4 122 55 140 77 7 8 10 30 7 52
-31 249 -62 420 -78 437 -5 5 -13 -2 -19 -18z"/>
<path d="M3501 1757 c-6 -15 -13 -38 -17 -51 -5 -21 -2 -22 25 -18 34 5 36 11
16 62 l-13 35 -11 -28z"/>
<path d="M6910 2125 c0 -8 4 -15 9 -15 5 0 3 -26 -5 -57 -7 -32 -13 -70 -14
-85 0 -24 4 -28 30 -28 28 0 44 23 21 32 -6 2 -2 37 9 83 11 44 19 81 20 83 0
1 -16 2 -35 2 -24 0 -35 -5 -35 -15z"/>
<path d="M6744 2099 c5 -27 -3 -86 -20 -141 -4 -14 0 -18 19 -18 19 0 26 6 31
30 5 27 10 30 41 30 73 0 114 87 55 117 -14 7 -49 13 -79 13 l-53 0 6 -31z
m106 -27 c0 -23 -19 -42 -42 -42 -18 0 -23 16 -12 44 9 23 54 21 54 -2z"/>
<path d="M7470 2120 c0 -5 5 -10 10 -10 6 0 10 5 10 10 0 6 -4 10 -10 10 -5 0
-10 -4 -10 -10z"/>
<path d="M7528 2105 c-6 -14 -16 -25 -22 -25 -7 0 -6 -3 1 -8 10 -6 10 -17 3
-42 -6 -19 -10 -47 -10 -62 0 -24 4 -28 30 -28 17 0 30 4 30 9 0 5 -10 7 -21
4 -21 -6 -21 -4 -15 42 10 66 15 75 40 76 l21 0 -22 9 c-15 6 -20 15 -16 29 7
29 -5 26 -19 -4z"/>
<path d="M6188 2114 c-5 -4 -8 -15 -8 -25 0 -12 -6 -16 -19 -12 -24 6 -54 -36
-49 -69 2 -19 10 -23 40 -24 l37 -2 6 53 c8 57 4 91 -7 79z m-8 -58 c0 -20
-22 -56 -35 -56 -18 0 -20 31 -3 48 11 11 38 17 38 8z"/>
<path d="M6480 2105 c0 -8 5 -15 10 -15 6 0 10 7 10 15 0 8 -4 15 -10 15 -5 0
-10 -7 -10 -15z"/>
<path d="M6586 2098 c-3 -13 -8 -44 -11 -70 -7 -57 9 -65 22 -10 5 22 15 37
23 37 11 0 14 -10 12 -37 -4 -48 13 -50 21 -2 8 50 0 67 -31 59 -22 -5 -24 -4
-18 20 4 14 2 25 -4 25 -5 0 -12 -10 -14 -22z"/>
<path d="M6525 2087 c-6 -12 -9 -41 -7 -64 3 -35 7 -43 23 -43 10 0 19 5 19
10 0 6 -4 10 -10 10 -5 0 -10 14 -10 30 0 22 5 30 18 30 15 1 15 2 1 13 -9 7
-16 16 -17 20 -1 17 -7 15 -17 -6z"/>
<path d="M7030 2073 c-43 -22 -66 -66 -54 -102 9 -24 14 -26 77 -28 53 -2 67
1 67 12 0 8 -4 15 -9 15 -4 0 -3 25 4 55 12 51 12 55 -5 55 -10 0 -24 2 -32 5
-7 3 -29 -3 -48 -12z m46 -30 c-3 -10 -8 -30 -12 -45 -4 -18 -13 -28 -25 -28
-26 0 -25 44 1 70 25 25 43 26 36 3z"/>
<path d="M7195 2081 c-42 -17 -72 -73 -60 -110 12 -38 106 -46 113 -10 2 12
-5 14 -33 11 -33 -4 -35 -3 -35 25 0 17 9 38 20 48 18 16 20 16 26 1 3 -9 15
-16 25 -16 25 0 25 36 0 50 -23 12 -29 12 -56 1z"/>
<path d="M7335 2081 c-42 -17 -72 -73 -60 -110 11 -36 102 -46 113 -13 2 8 -8
12 -32 12 -20 0 -36 5 -36 10 0 6 9 10 20 10 61 0 99 51 60 82 -24 20 -35 21
-65 9z m38 -27 c12 -13 -6 -34 -31 -34 -24 0 -25 0 -7 20 19 21 28 24 38 14z"/>
<path d="M5883 2064 c-2 -7 -3 -29 -1 -50 4 -40 11 -33 23 19 9 41 30 28 27
-16 -2 -22 1 -37 7 -37 6 0 11 13 11 28 0 28 15 52 33 52 5 0 6 -18 2 -40 -4
-25 -3 -40 3 -40 6 0 13 18 17 41 8 49 -5 70 -34 52 -10 -7 -22 -9 -26 -5 -11
12 -57 9 -62 -4z"/>
<path d="M6039 2059 c-13 -13 -19 -30 -17 -47 2 -23 8 -27 33 -27 37 0 45 10
45 58 0 30 -4 37 -20 37 -11 0 -29 -9 -41 -21z m41 -17 c0 -19 -18 -42 -32
-42 -12 0 -9 35 4 48 17 17 28 15 28 -6z"/>
<path d="M6227 2062 c-18 -20 -22 -49 -8 -70 10 -16 53 -12 58 4 2 7 -6 10
-22 7 -35 -7 -31 13 6 26 21 7 30 16 27 28 -5 25 -41 28 -61 5z m38 -12 c-3
-5 -13 -10 -21 -10 -8 0 -12 5 -9 10 3 6 13 10 21 10 8 0 12 -4 9 -10z"/>
<path d="M6340 2075 c-6 -30 7 -95 19 -95 5 0 15 15 22 33 12 31 12 31 16 7 8
-46 22 -45 44 4 11 26 18 50 15 53 -3 3 -11 -6 -17 -21 -14 -31 -29 -34 -29
-7 0 34 -20 34 -32 0 l-11 -33 -13 34 c-7 19 -13 31 -14 25z"/>
<path d="M6478 2074 c-5 -4 -8 -28 -8 -53 0 -32 3 -42 11 -34 5 5 9 29 7 53
-2 23 -6 38 -10 34z"/>
<path d="M7447 2072 c9 -5 8 -21 -2 -64 -11 -49 -11 -59 1 -69 8 -6 14 -10 14
-8 1 2 2 24 4 49 2 25 7 57 11 73 6 24 4 27 -16 27 -15 0 -19 -3 -12 -8z"/>
<path d="M1782 1975 c0 -16 2 -22 5 -12 2 9 2 23 0 30 -3 6 -5 -1 -5 -18z"/>
</g>
</svg>
